<svg data-v-9ba4cb7e="" data-v-9bac373c="" xmlns="http://www.w3.org/2000/svg" width="80" height="80" viewBox="0 0 80 80" class="icon text-icon-contrast text-undefined" size="24" alt="Reddit"><path fill="currentColor" d="M50.17 15.249c.868 3.675 4.167 6.413 8.106 6.413a8.33 8.33 0 0 0 8.328-8.33A8.33 8.33 0 0 0 58.276 5c-4.021 0-7.375 2.851-8.156 6.644-6.735.722-11.994 6.437-11.994 13.362v.043c-7.325.308-14.013 2.394-19.323 5.686a11.6 11.6 0 0 0-7.133-2.437C5.224 28.298 0 33.524 0 39.973c0 4.679 2.748 8.71 6.72 10.573C7.105 64.099 21.867 75 40.026 75s32.941-10.913 33.308-24.478C77.275 48.647 80 44.628 80 39.977c0-6.449-5.224-11.675-11.67-11.675-2.674 0-5.138.902-7.106 2.418-5.357-3.316-12.119-5.402-19.518-5.68v-.03c0-4.96 3.686-9.078 8.465-9.753zM18.336 47.382c.195-4.234 3.006-7.484 6.274-7.484s5.767 3.434 5.572 7.668c-.196 4.233-2.636 5.772-5.908 5.772s-6.134-1.722-5.938-5.956m37.115-7.484c3.271 0 6.083 3.25 6.274 7.484.195 4.234-2.67 5.956-5.939 5.956-3.268 0-5.712-1.535-5.907-5.772-.195-4.234 2.3-7.668 5.572-7.668m-3.89 17.28a.925.925 0 0 1 .766 1.27c-2.01 4.807-6.758 8.186-12.299 8.186s-10.284-3.379-12.298-8.187a.925.925 0 0 1 .765-1.27c3.592-.362 7.477-.562 11.533-.562 4.057 0 7.938.2 11.534.563"></path></svg>